<svg xmlns="http://www.w3.org/2000/svg" xmlns:xlink="http://www.w3.org/1999/xlink" width="500" zoomAndPan="magnify" viewBox="0 0 375 374.999991" height="500" preserveAspectRatio="xMidYMid meet" version="1.0"><path fill="#38b6ff" d="M 253.941406 0.308594 L 211.609375 63.808594 L 312.019531 164.21875 L 375.515625 121.886719 Z M 207.21875 82.910156 C 178.507812 104.566406 143.582031 112.335938 81.773438 112.335938 L 75.0625 112.335938 L 73.769531 119.046875 C 58.449219 195.691406 6.351562 346.328125 0.207031 364.003906 L 150.175781 213.777344 C 150.605469 213.347656 151.238281 213.316406 151.722656 213.003906 C 150.269531 210.011719 149.402344 206.480469 149.402344 202.9375 C 149.402344 190.40625 159.585938 180.480469 172.117188 180.480469 C 184.644531 180.480469 194.832031 190.40625 194.832031 202.9375 C 194.832031 215.472656 184.65625 225.652344 172.117188 225.652344 C 168.910156 225.652344 165.839844 225.050781 163.082031 223.84375 C 162.734375 224.421875 162.542969 225.15625 162.050781 225.652344 L 11.820312 375.621094 C 29.441406 369.5 180.128906 317.386719 256.78125 302.054688 L 263.492188 300.765625 L 263.492188 294.054688 C 263.492188 232.242188 271.25 197.316406 292.917969 168.605469 Z M 207.21875 82.910156 " fill-opacity="1" fill-rule="nonzero"/></svg>